<?xml version="1.0" encoding="UTF-8"?>
<svg id="Layer_1" data-name="Layer 1" xmlns="http://www.w3.org/2000/svg" viewBox="0 0 262.67 243.64">
  <defs>
    <style>
      .cls-1, .cls-2, .cls-3, .cls-4, .cls-5, .cls-6 {
        fill: none;
      }

      .cls-1, .cls-3 {
        stroke-linecap: round;
        stroke-linejoin: round;
      }

      .cls-1, .cls-3, .cls-5 {
        stroke: #f7931e;
        stroke-width: 1.41px;
      }

      .cls-1, .cls-5 {
        fill-rule: evenodd;
      }

      .cls-2 {
        stroke-dasharray: 8.36 5.23 8.36 5.23;
      }

      .cls-2, .cls-4, .cls-6 {
        stroke: #1b1464;
        stroke-miterlimit: 5;
        stroke-width: .75px;
      }

      .cls-7 {
        fill: #1b1464;
      }

      .cls-5 {
        stroke-miterlimit: 2.61;
      }

      .cls-8 {
        fill: #fff8e9;
      }

      .cls-6 {
        stroke-dasharray: 8.36 5.23 8.36 5.23 8.36 5.23;
      }
    </style>
  </defs>
  <g>
    <path class="cls-8" d="M130.98,242.14c-63.66,0-115.45-50.73-115.45-113.09S67.32,15.96,130.98,15.96s115.45,50.73,115.45,113.09-51.79,113.09-115.45,113.09Z"/>
    <path class="cls-7" d="M130.98,17.46c30.45,0,59.07,11.62,80.6,32.71,21.51,21.07,33.35,49.09,33.35,78.89s-11.85,57.81-33.35,78.89c-21.53,21.09-50.15,32.71-80.6,32.71s-59.07-11.62-80.6-32.71c-21.51-21.07-33.35-49.09-33.35-78.89s11.85-57.81,33.35-78.89c21.53-21.09,50.15-32.71,80.6-32.71M130.98,14.46c-64.59,0-116.95,51.3-116.95,114.59s52.36,114.59,116.95,114.59,116.95-51.3,116.95-114.59S195.57,14.46,130.98,14.46h0Z"/>
  </g>
  <g>
    <path class="cls-4" d="M.38,128.69c0-1.34.02-2.67.06-4"/>
    <path class="cls-2" d="M.71,119.47c.6-8.3,2.01-16.39,4.15-24.18"/>
    <path class="cls-6" d="M5.57,92.78C21.42,39.39,71.73.38,131.34.38c70.06,0,127.28,53.91,130.79,121.7"/>
    <path class="cls-4" d="M262.23,124.69c.04,1.33.06,2.66.06,4"/>
  </g>
  <g>
    <rect class="cls-3" x="67.64" y="75.68" width="23.28" height="11.43" rx="4.97" ry="4.97"/>
    <rect class="cls-3" x="163.93" y="75.68" width="23.28" height="11.43" rx="4.97" ry="4.97"/>
    <path class="cls-5" d="M84.71,87.11l6.26,35.33c.19,1.1.61,2.06,1.22,2.66.31.31.7.5,1.16.5h68.14c.46,0,.85-.19,1.16-.5.6-.61,1.02-1.56,1.22-2.66l6.26-35.33M180.28,87.11l-6.57,37.05c-.54,3.06-1.9,5.93-3.99,8.01-2.12,2.12-4.89,3.43-8.23,3.43h-68.14c-3.34,0-6.12-1.31-8.23-3.43s-3.45-4.95-3.99-8.01l-6.57-37.05"/>
    <rect class="cls-3" x="93.35" y="135.59" width="68.14" height="10.34"/>
    <rect class="cls-3" x="114.3" y="145.94" width="26.23" height="12.27"/>
    <path class="cls-1" d="M97.34,194.53v-4.04c0-4.34,1.77-8.28,4.62-11.13,2.85-2.85,6.79-4.62,11.13-4.62h28.65c4.34,0,8.28,1.77,11.13,4.62,2.85,2.85,4.62,6.79,4.62,11.13v4.04M149.5,194.53v-4.04c0-2.13-.87-4.07-2.28-5.47-1.41-1.41-3.35-2.28-5.47-2.28h-28.65c-2.13,0-4.07.87-5.47,2.28-1.41,1.41-2.28,3.35-2.28,5.47v4.04"/>
    <path class="cls-1" d="M101.34,208.41c4.14,0,7.51-3.37,7.51-7.51s-3.37-7.51-7.51-7.51-7.51,3.37-7.51,7.51,3.37,7.51,7.51,7.51Z"/>
    <path class="cls-1" d="M153.5,208.41c4.14,0,7.51-3.37,7.51-7.51s-3.37-7.51-7.51-7.51-7.51,3.37-7.51,7.51,3.37,7.51,7.51,7.51Z"/>
    <rect class="cls-3" x="122.03" y="158.21" width="10.79" height="16.53"/>
    <path class="cls-1" d="M89.57,114.54c1.43-5.07,6.1-8.81,11.61-8.81h52.48c5.51,0,10.18,3.74,11.61,8.81"/>
    <path class="cls-1" d="M127.42,45.42h-20.85c-6.24,0-10.9,5.13-9.95,11.43l7.41,48.88h46.77l7.41-48.88c.96-6.3-3.7-11.43-9.95-11.43h-20.85Z"/>
    <path class="cls-1" d="M128.18,56.4h-12.3c-3.89,0-6.8,3.2-6.2,7.13l3.78,24.97"/>
  </g>
</svg>