<?xml version="1.0" encoding="UTF-8"?>
<svg id="Layer_2" data-name="Layer 2" xmlns="http://www.w3.org/2000/svg" viewBox="0 0 263.45 243.94">
  <defs>
    <style>
      .cls-1 {
        stroke-width: 1.5px;
      }

      .cls-1, .cls-2, .cls-3, .cls-4 {
        fill: none;
      }

      .cls-1, .cls-5, .cls-6 {
        stroke: #8cc63f;
      }

      .cls-1, .cls-6 {
        stroke-linecap: round;
        stroke-linejoin: round;
      }

      .cls-2 {
        stroke-dasharray: 8.36 5.23 8.36 5.23;
      }

      .cls-2, .cls-3, .cls-4 {
        stroke: #1b1464;
        stroke-miterlimit: 5;
        stroke-width: 1.35px;
      }

      .cls-5 {
        fill: #8cc63f;
        stroke-miterlimit: 10;
      }

      .cls-7 {
        fill: #1b1464;
      }

      .cls-3 {
        stroke-dasharray: 8.36 5.23 8.36 5.23 8.36 5.23;
      }

      .cls-6 {
        stroke-width: 5px;
      }

      .cls-6, .cls-8 {
        fill: #f5ffe6;
      }
    </style>
  </defs>
  <g>
    <path class="cls-8" d="M131.64,241.44c-61.81,0-112.09-50.28-112.09-112.09S69.83,17.26,131.64,17.26s112.09,50.28,112.09,112.09-50.28,112.09-112.09,112.09Z"/>
    <path class="cls-7" d="M131.64,19.76c29.27,0,56.79,11.4,77.49,32.1,20.7,20.7,32.1,48.22,32.1,77.49s-11.4,56.79-32.1,77.49c-20.7,20.7-48.22,32.1-77.49,32.1s-56.79-11.4-77.49-32.1c-20.7-20.7-32.1-48.22-32.1-77.49s11.4-56.79,32.1-77.49c20.7-20.7,48.22-32.1,77.49-32.1M131.64,14.76c-63.29,0-114.59,51.3-114.59,114.59s51.3,114.59,114.59,114.59,114.59-51.3,114.59-114.59S194.92,14.76,131.64,14.76h0Z"/>
  </g>
  <g>
    <path class="cls-4" d="M.68,128.99c0-1.34.02-2.67.06-4"/>
    <path class="cls-2" d="M1.01,119.77c.6-8.3,2.01-16.39,4.15-24.18"/>
    <path class="cls-3" d="M5.87,93.08C21.72,39.69,72.03.68,131.64.68c70.06,0,127.28,53.91,130.79,121.7"/>
    <path class="cls-4" d="M262.53,124.99c.04,1.33.06,2.66.06,4"/>
  </g>
  <path class="cls-5" d="M120.95,95.46c5.89,0,10.67-4.78,10.67-10.67s-4.78-10.67-10.67-10.67-10.67,4.78-10.67,10.67,4.78,10.67,10.67,10.67ZM120.95,77.95c3.79,0,6.87,3.08,6.87,6.87s-3.08,6.87-6.87,6.87-6.87-3.08-6.87-6.87,3.08-6.87,6.87-6.87ZM102.12,107.24c4.7,5.08,11.4,8.26,18.83,8.26s14.13-3.21,18.83-8.26c.08-.08.15-.13.2-.23,4.12-4.55,6.65-10.59,6.65-17.19,0-14.15-11.53-25.68-25.7-25.68s-25.68,11.53-25.68,25.68c0,6.62,2.53,12.64,6.65,17.19.05.08.13.15.2.23h.03ZM120.95,111.71c-5.76,0-10.99-2.25-14.91-5.91,3.31-4.02,8.87-6.47,14.91-6.47s11.58,2.45,14.91,6.47c-3.92,3.64-9.15,5.91-14.91,5.91ZM120.95,67.91c12.08,0,21.91,9.83,21.91,21.89,0,4.93-1.67,9.48-4.42,13.14-4.07-4.6-10.54-7.41-17.49-7.41s-13.42,2.78-17.49,7.41c-2.75-3.66-4.42-8.21-4.42-13.14,0-12.08,9.83-21.89,21.89-21.89h.03ZM188.91,102.31h-8.44v-44.56c0-6.62-5.38-12.01-12.01-12.01h-69.71c-6.62,0-12.01,5.38-12.01,12.01v.83h-17.06c-5.23,0-9.48,4.25-9.48,9.48v106.23c0,5.23,4.25,9.48,9.48,9.48h.83c.88,4.32,4.7,7.58,9.28,7.58h10.97c2.2,1.95,5.03,3.11,7.99,3.11h69.71c6.62,0,12.01-5.38,12.01-12.01v-32.05l.91-.94c1.67-1.69,2.68-3.97,2.68-6.12v-7.83c3.39,0,6.5-1.87,8.09-4.85l4.85-9.17c.71-1.31,1.06-2.81,1.06-4.3v-5.76c0-5.05-4.09-9.15-9.15-9.15v.03ZM70.33,90.15v89.82h-.63c-3.13,0-5.69-2.55-5.69-5.69v-106.23c0-3.13,2.55-5.69,5.69-5.69h17.06v18.3h-6.95c-5.23,0-9.48,4.25-9.48,9.48ZM79.8,187.56c-3.13,0-5.69-2.55-5.69-5.69v-91.72c0-3.13,2.55-5.69,5.69-5.69h6.95v97.99c0,1.79.43,3.51,1.19,5.11h-8.14ZM176.68,182.46c0,4.52-3.69,8.21-8.21,8.21h-69.71c-2.22,0-4.4-.91-5.94-2.53-1.47-1.54-2.27-3.56-2.27-5.69V57.75c0-4.52,3.69-8.21,8.21-8.21h69.71c4.52,0,8.21,3.69,8.21,8.21v44.56h-13.09c-5.05,0-9.15,4.12-9.15,9.15v2.22h0v3.51c0,1.49.38,2.98,1.06,4.27l4.85,9.17c1.59,3.01,4.68,4.85,8.09,4.85v13.12c0,2.38,1.16,4.27,3.11,5.08.66.28,1.39.4,2.12.4.99,0,2.02-.25,3.03-.73v29.04l-.03.05ZM194.27,117.22c0,.88-.2,1.74-.63,2.5l-4.85,9.17c-.94,1.77-2.75,2.86-4.75,2.86h-1.9c-1.04,0-1.9.86-1.9,1.9v9.73c0,1.14-.61,2.45-1.57,3.44l-1.47,1.47h0l-.53.53c-1.36,1.36-2.91,1.74-3.74,1.42-.51-.2-.76-.73-.76-1.57v-15.01c0-1.04-.86-1.9-1.9-1.9h-1.9c-2,0-3.82-1.09-4.75-2.86l-4.85-9.17c-.4-.76-.63-1.64-.63-2.5v-1.62h36.07v1.62h.05ZM194.27,111.81h-36.07v-.35c0-2.96,2.4-5.36,5.36-5.36h25.35c2.96,0,5.36,2.4,5.36,5.36v.35ZM149.64,123.01c1.04,0,1.9.86,1.9,1.9s-.86,1.9-1.9,1.9h-50.8c-1.04,0-1.9-.86-1.9-1.9s.86-1.9,1.9-1.9h50.8ZM136.6,179.95c0,1.04-.86,1.9-1.9,1.9h-2.15c-1.04,0-1.9-.86-1.9-1.9s.86-1.9,1.9-1.9h2.15c1.04,0,1.9.86,1.9,1.9ZM136.6,159.73c0,1.04-.86,1.9-1.9,1.9h-2.15c-1.04,0-1.9-.86-1.9-1.9s.86-1.9,1.9-1.9h2.15c1.04,0,1.9.86,1.9,1.9ZM136.6,169.84c0,1.04-.86,1.9-1.9,1.9h-2.15c-1.04,0-1.9-.86-1.9-1.9s.86-1.9,1.9-1.9h2.15c1.04,0,1.9.86,1.9,1.9ZM136.6,139.52c0,1.04-.86,1.9-1.9,1.9h-2.15c-1.04,0-1.9-.86-1.9-1.9s.86-1.9,1.9-1.9h2.15c1.04,0,1.9.86,1.9,1.9ZM136.6,149.63c0,1.04-.86,1.9-1.9,1.9h-2.15c-1.04,0-1.9-.86-1.9-1.9s.86-1.9,1.9-1.9h2.15c1.04,0,1.9.86,1.9,1.9ZM122.19,136.13c0,1.04-.86,1.9-1.9,1.9h-22.01c-1.04,0-1.9-.86-1.9-1.9s.86-1.9,1.9-1.9h22.01c1.04,0,1.9.86,1.9,1.9ZM96.74,145.61c0-1.04.86-1.9,1.9-1.9h10.87c1.04,0,1.9.86,1.9,1.9s-.86,1.9-1.9,1.9h-10.87c-1.04,0-1.9-.86-1.9-1.9ZM122.19,161.4c0,1.04-.86,1.9-1.9,1.9h-22.01c-1.04,0-1.9-.86-1.9-1.9s.86-1.9,1.9-1.9h22.01c1.04,0,1.9.86,1.9,1.9ZM111.4,170.88c0,1.04-.86,1.9-1.9,1.9h-10.87c-1.04,0-1.9-.86-1.9-1.9s.86-1.9,1.9-1.9h10.87c1.04,0,1.9.86,1.9,1.9ZM163.08,140.96c0,1.04-.86,1.9-1.9,1.9h-17.34c-1.04,0-1.9-.86-1.9-1.9s.86-1.9,1.9-1.9h17.34c1.04,0,1.9.86,1.9,1.9ZM163.08,151.07c0,1.04-.86,1.9-1.9,1.9h-17.34c-1.04,0-1.9-.86-1.9-1.9s.86-1.9,1.9-1.9h17.34c1.04,0,1.9.86,1.9,1.9ZM163.08,161.18c0,1.04-.86,1.9-1.9,1.9h-17.34c-1.04,0-1.9-.86-1.9-1.9s.86-1.9,1.9-1.9h17.34c1.04,0,1.9.86,1.9,1.9ZM163.08,171.29c0,1.04-.86,1.9-1.9,1.9h-17.34c-1.04,0-1.9-.86-1.9-1.9s.86-1.9,1.9-1.9h17.34c1.04,0,1.9.86,1.9,1.9ZM157.5,83.94c4.45,0,8.09-3.61,8.09-8.09s-3.61-8.09-8.09-8.09-8.09,3.61-8.09,8.09,3.61,8.09,8.09,8.09ZM157.5,71.58c2.35,0,4.3,1.92,4.3,4.3s-1.92,4.3-4.3,4.3-4.3-1.92-4.3-4.3,1.92-4.3,4.3-4.3Z"/>
  <ellipse class="cls-6" cx="179.09" cy="187.5" rx="25.03" ry="24.73"/>
  <g>
    <path class="cls-1" d="M173.09,176.98h12.51c1.6,0,2.92,1.31,2.92,2.92v12.73c0,1.6-1.31,2.92-2.92,2.92h-12.51c-1.6,0-2.9-1.31-2.9-2.92v-12.73c0-1.6,1.3-2.92,2.9-2.92h0Z"/>
    <path class="cls-1" d="M174.53,191.56v-7.34c0-1.8,1.47-3.25,3.25-3.25h0c1.78,0,3.25,1.45,3.25,3.25v7.34"/>
    <line class="cls-1" x1="174.53" y1="188.73" x2="181.03" y2="188.73"/>
    <line class="cls-1" x1="184.18" y1="180.97" x2="184.18" y2="191.56"/>
    <polyline class="cls-1" points="183.35 176.98 183.35 175.24 185.22 173.19"/>
    <path class="cls-1" d="M186.04,173.51c.66,0,1.2-.54,1.2-1.22s-.54-1.2-1.2-1.2-1.22.54-1.22,1.2.54,1.22,1.22,1.22h0Z"/>
    <polyline class="cls-1" points="175.36 176.98 175.36 175.24 173.5 173.19"/>
    <path class="cls-1" d="M172.68,173.51c.68,0,1.22-.54,1.22-1.22s-.54-1.2-1.22-1.2-1.22.54-1.22,1.2.55,1.22,1.22,1.22h0Z"/>
    <line class="cls-1" x1="179.36" y1="176.98" x2="179.36" y2="174.78"/>
    <path class="cls-1" d="M179.36,174.78c.66,0,1.22-.54,1.22-1.22s-.55-1.2-1.22-1.2-1.22.54-1.22,1.2.55,1.22,1.22,1.22h0Z"/>
    <polyline class="cls-1" points="183.35 195.55 183.35 197.3 185.22 199.33"/>
    <path class="cls-1" d="M186.04,201.45c.66,0,1.2-.54,1.2-1.22s-.54-1.2-1.2-1.2-1.22.54-1.22,1.2.54,1.22,1.22,1.22h0Z"/>
    <polyline class="cls-1" points="175.36 195.55 175.36 197.3 173.5 199.33"/>
    <path class="cls-1" d="M172.68,201.45c.68,0,1.22-.54,1.22-1.22s-.54-1.2-1.22-1.2-1.22.54-1.22,1.2.55,1.22,1.22,1.22h0Z"/>
    <line class="cls-1" x1="179.36" y1="195.55" x2="179.36" y2="197.74"/>
    <path class="cls-1" d="M179.36,200.18c.66,0,1.22-.54,1.22-1.22s-.55-1.22-1.22-1.22-1.22.55-1.22,1.22.55,1.22,1.22,1.22h0Z"/>
    <polyline class="cls-1" points="188.52 182.27 190.28 182.27 192.31 180.41"/>
    <path class="cls-1" d="M194.43,179.59c0-.66-.54-1.22-1.22-1.22s-1.2.55-1.2,1.22.54,1.22,1.2,1.22,1.22-.54,1.22-1.22h0Z"/>
    <polyline class="cls-1" points="188.52 190.26 190.28 190.26 192.31 192.13"/>
    <path class="cls-1" d="M194.43,192.95c0,.66-.54,1.2-1.22,1.2s-1.2-.54-1.2-1.2.54-1.22,1.2-1.22,1.22.54,1.22,1.22h0Z"/>
    <line class="cls-1" x1="188.52" y1="186.27" x2="190.74" y2="186.27"/>
    <path class="cls-1" d="M193.16,186.27c0-.68-.54-1.22-1.22-1.22s-1.2.54-1.2,1.22.54,1.22,1.2,1.22,1.22-.55,1.22-1.22h0Z"/>
    <polyline class="cls-1" points="170.19 182.27 168.44 182.27 166.4 180.41"/>
    <path class="cls-1" d="M164.29,179.59c0-.66.54-1.22,1.22-1.22s1.2.55,1.2,1.22-.54,1.22-1.2,1.22-1.22-.54-1.22-1.22h0Z"/>
    <polyline class="cls-1" points="170.19 190.26 168.44 190.26 166.4 192.13"/>
    <path class="cls-1" d="M164.29,192.95c0,.66.54,1.2,1.22,1.2s1.2-.54,1.2-1.2-.54-1.22-1.2-1.22-1.22.54-1.22,1.22h0Z"/>
    <line class="cls-1" x1="170.19" y1="186.27" x2="167.98" y2="186.27"/>
    <path class="cls-1" d="M165.56,186.27c0-.68.54-1.22,1.22-1.22s1.2.54,1.2,1.22-.54,1.22-1.2,1.22-1.22-.55-1.22-1.22h0Z"/>
  </g>
</svg>